<svg width="118" height="38" viewBox="0 0 118 38" fill="none" xmlns="http://www.w3.org/2000/svg">
<rect x="1" y="1" width="116" height="36" stroke="black" stroke-width="2"/>
<path d="M18.75 24.75V23H17V12.5H20.5V23H25.75V12.5H29.25V23H27.5V24.75H18.75ZM31 24.75V16H41.5V17.75H43.25V24.75H39.75V17.75H34.5V24.75H31ZM46.75 24.75V23H50.25V14.25H48.5V12.5H53.75V23H57.25V24.75H46.75ZM64.25 14.25V12.5H67.75V14.25H64.25ZM60.75 24.75V23H64.25V17.75H62.5V16H67.75V23H71.25V24.75H60.75ZM73 24.75V12.5H76.5V19.5H80V17.75H81.75V16H85.25V17.75H83.5V19.5H81.75V21.25H83.5V23H85.25V24.75H81.75V23H80V21.25H76.5V24.75H73ZM88.75 24.75V23H87V17.75H88.75V16H97.5V17.75H99.25V21.25H90.5V23H97.5V24.75H88.75ZM90.5 19.5H95.75V17.75H90.5V19.5Z" fill="black"/>
</svg>
